{"title":"Dawn Of The Planet of The Apes 2014 TS XVID AC3 ACAB","uid":11188987,"size":1163897572,"categoryP":"video","categoryS":"movies","magnet":"?xt=urn:btih:d7c4d0b78b7c0df9e227eb5605d38a5375f65a7c&amp;dn=Dawn+Of+The+Planet+of+The+Apes+2014+TS+XVID+AC3+ACAB&amp;tr=udp%3A%2F%2Ftracker.openbittorrent.com%3A80&amp;tr=udp%3A%2F%2Fopen.demonii.com%3A1337&amp;tr=udp%3A%2F%2Ftracker.coppersurfer.tk%3A6969&amp;tr=udp%3A%2F%2Fexodus.desync.com%3A6969","seeders":5,"leechers":0,"uploader":"jacks66","files":-1,"time":1412966836,"description":" &lt;a href=&quot;http://www.imdb.com/title/tt2103281/&quot; rel=&quot;nofollow&quot; target=&quot;_NEW&quot;&gt;http://www.imdb.com/title/tt2103281/&lt;/a&gt;\n\n\nFormat : AVI\nFormat/Info : Audio Video Interleave\nFile size : 1.07 GiB\nDuration : 2h 5mn\nOverall bit rate : 1 219 Kbps\nWriting library : VirtualDub build 30091/release\n\nVideo\n\nID : 0\nFormat : MPEG-4 Visual\nFormat profile : Advanced Simple@L5\nFormat settings, BVOP : 2\nFormat settings, QPel : No\nFormat settings, GMC : No warppoints\nFormat settings, Matrix : Default (H.263)\nMuxing mode : Packed bitstream\nCodec ID : XVID\nCodec ID/Hint : XviD\nDuration : 2h 5mn\nBit rate : 1 026 Kbps\nWidth : 624 pixels\nHeight : 304 pixels\nDisplay aspect ratio : 2.053\nFrame rate : 25.000 fps\nColor space : YUV\nChroma subsampling : 4:2:0\nBit depth : 8 bits\nScan type : Progressive\nCompression mode : Lossy\nBits/(Pixel*Frame) : 0.216\nStream size : 921 MiB (84%)\nWriting library : XviD 1.2.1 (UTC 2008-12-04)\n\nAudio\nID : 1\nFormat : AC-3\nFormat/Info : Audio Coding 3\nMode extension : CM (complete main)\nFormat settings, Endianness : Big\nCodec ID : 2000\nDuration : 1h 59mn\nBit rate mode : Constant\nBit rate : 192 Kbps\nChannel(s) : 2 channels\nChannel positions : Front: L R\nSampling rate : 48.0 KHz\nBit depth : 16 bits\nCompression mode : Lossy\nStream size : 164 MiB (15%)\n\n\nScreens:\n\n &lt;a href=&quot;\nhttp://imgsleek.com/img-54380ca83a35d.html&quot; rel=&quot;nofollow&quot; target=&quot;_NEW&quot;&gt;\nhttp://imgsleek.com/img-54380ca83a35d.html&lt;/a&gt;\n &lt;a href=&quot;\nhttp://imgsleek.com/img-54380ca847648.html&quot; rel=&quot;nofollow&quot; target=&quot;_NEW&quot;&gt;\nhttp://imgsleek.com/img-54380ca847648.html&lt;/a&gt;\n &lt;a href=&quot;\nhttp://imgsleek.com/img-54380ca84e095.html&quot; rel=&quot;nofollow&quot; target=&quot;_NEW&quot;&gt;\nhttp://imgsleek.com/img-54380ca84e095.html&lt;/a&gt;\n","torrent":{"xt":"urn:btih:d7c4d0b78b7c0df9e227eb5605d38a5375f65a7c","amp;dn":"Dawn+Of+The+Planet+of+The+Apes+2014+TS+XVID+AC3+ACAB","amp;tr":["udp%3A%2F%2Ftracker.openbittorrent.com%3A80","udp%3A%2F%2Fopen.demonii.com%3A1337","udp%3A%2F%2Ftracker.coppersurfer.tk%3A6969","udp%3A%2F%2Fexodus.desync.com%3A6969"],"infoHash":"d7c4d0b78b7c0df9e227eb5605d38a5375f65a7c","infoHashBuffer":{"type":"Buffer","data":[215,196,208,183,139,124,13,249,226,39,235,86,5,211,138,83,117,246,90,124]},"announce":[],"urlList":[]}}